<svg xmlns="http://www.w3.org/2000/svg" viewBox="0 0 64 64" role="img" aria-label="iStore icon">
  <defs>
    <linearGradient id="g" x1="0" y1="0" x2="1" y2="1">
      <stop offset="0%" stop-color="#ffffff" />
      <stop offset="100%" stop-color="#c7c7c7" />
    </linearGradient>
  </defs>
  <path fill="url(#g)" d="M38.8 16.1c-1.7 1.8-2.9 4.3-2.6 6.8 2.4.2 5.1-1.2 6.7-3.1 1.5-1.8 2.7-4.4 2.4-6.8-2.3-.1-4.9 1.2-6.5 3.1zM47.6 33.4c0-5.2 4.3-7.7 4.5-7.8-2.5-3.6-6.4-4.1-7.8-4.2-3.3-.4-6.4 1.9-8 1.9-1.6 0-4.1-1.9-6.7-1.8-3.5.1-6.7 2-8.5 5.1-3.6 6.2-.9 15.4 2.6 20.4 1.7 2.4 3.8 5 6.5 4.9 2.6-.1 3.6-1.7 6.8-1.7 3.2 0 4.1 1.7 6.9 1.6 2.9-.1 4.7-2.5 6.4-4.9 1.9-2.8 2.7-5.5 2.8-5.6-.1-.1-5.4-2.1-5.5-8z"/>
</svg>
